<svg id="Layer_1" data-name="Layer 1" xmlns="http://www.w3.org/2000/svg" xmlns:xlink="http://www.w3.org/1999/xlink" viewBox="0 0 653.35 219.51"><defs><style>.cls-1{fill:url(#linear-gradient);}.cls-2{fill:#6d6e71;}</style><linearGradient id="linear-gradient" x1="91.82" y1="298" x2="311.39" y2="298" gradientUnits="userSpaceOnUse"><stop offset="0" stop-color="#44f1ff"/><stop offset="0.36" stop-color="#7092fb"/><stop offset="0.67" stop-color="#9249f8"/><stop offset="0.89" stop-color="#a71bf6"/><stop offset="1" stop-color="#af0af5"/></linearGradient></defs><path class="cls-1" d="M309.15,335.52a12,12,0,0,0-1.69-1.29L249.69,298l57.76-36.23a12,12,0,0,0,1.69-1.29c3.47-3.48,2.58-8.55-.4-11.53a7.43,7.43,0,0,0-9.74-1l-49.21,31.91L281,230a7.47,7.47,0,0,0-1.09-9.84l-.4-.4a7.66,7.66,0,0,0-9.84-1.09l-49.9,31.21,31.91-49.21a7.53,7.53,0,0,0-1-9.74c-3-3-8.05-3.88-11.53-.4a11.26,11.26,0,0,0-1.29,1.69L201.6,250l-36.26-57.81a10.63,10.63,0,0,0-1.29-1.69c-3.48-3.48-8.55-2.58-11.53.4a7.43,7.43,0,0,0-1,9.74l31.92,49.21-49.91-31.21a7.46,7.46,0,0,0-9.84,1.09l-.4.4A7.67,7.67,0,0,0,122.2,230l31.21,49.9L104.21,248a7.54,7.54,0,0,0-9.75,1c-3,3-3.87,8.05-.39,11.53a10.92,10.92,0,0,0,1.69,1.29L153.52,298,95.77,334.23a10.92,10.92,0,0,0-1.69,1.29c-3.48,3.48-2.59,8.55.39,11.53a7.45,7.45,0,0,0,9.75,1l49.2-31.91L122.21,366a7.47,7.47,0,0,0,1.09,9.84l.4.4a7.66,7.66,0,0,0,9.84,1.09l49.91-31.21-31.91,49.21a7.52,7.52,0,0,0,1,9.74c3,3,8.05,3.88,11.53.4a10.63,10.63,0,0,0,1.29-1.69L201.61,346l36.26,57.81a11.26,11.26,0,0,0,1.29,1.69c3.48,3.48,8.55,2.58,11.53-.4a7.43,7.43,0,0,0,1-9.74l-31.91-49.21,49.9,31.21a7.46,7.46,0,0,0,9.84-1.09l.4-.4A7.66,7.66,0,0,0,281,366l-31.21-49.9L299,348.05a7.53,7.53,0,0,0,9.74-1C311.73,344.07,312.63,339,309.15,335.52Zm-58.66,11.34-44.43-27.54a7.84,7.84,0,0,0-4.55-1.25c-.23,0-.45,0-.68,0l-.5.07a8.84,8.84,0,0,0-3.17,1.14l-44.43,27.54,27.54-44.44a7.78,7.78,0,0,0,1.24-4.61c0-.1,0-.2,0-.3a6.17,6.17,0,0,0-.12-.95,8.11,8.11,0,0,0-.21-.85l-.14-.47a8.67,8.67,0,0,0-.46-1l-.18-.38c0-.08-.08-.16-.13-.24l-27.53-44.44,44.43,27.54a7.86,7.86,0,0,0,4.55,1.25c.23,0,.46,0,.68,0l.5-.07a8.84,8.84,0,0,0,3.17-1.14l44.43-27.54L223,293.58a7.86,7.86,0,0,0-1.25,4.61c0,.1,0,.2,0,.3,0,.32.06.63.12.95a8.11,8.11,0,0,0,.21.85l.14.47a10.62,10.62,0,0,0,.46,1l.19.38c0,.08.07.16.12.24Z" transform="translate(-91.82 -188.24)"/><path class="cls-2" d="M374,270v-.55h6.37c2.64,18.29,6.36,33.33,11.65,45.52,5-10.84,9-27.23,11.65-45.52h5.28c2.64,18.29,6.1,32.79,11.65,45.52,4.74-10.09,9-27.23,11.65-45.52H438V270c-3.18,22.48-9.82,42.87-13.48,50.25h-7.72c-2.71-5.48-7-18.35-10.56-33.59-3.59,15.24-7.79,28.11-10.57,33.59H387.5C383.77,312.83,377.13,292.44,374,270Z" transform="translate(-91.82 -188.24)"/><path class="cls-2" d="M445.94,306.46v-37h28.59V275H452.31v15.58h20.05v5.62H452.31V307c0,5.28,2.64,7.65,6.84,7.65h15.38v5.55H459.69C450.69,320.21,445.94,316,445.94,306.46Z" transform="translate(-91.82 -188.24)"/><path class="cls-2" d="M486.72,269.41h11.65v50.8H486.72Z" transform="translate(-91.82 -188.24)"/><path class="cls-2" d="M508.93,269.41h11.65l13.48,19.31,14-19.31h11.65v50.8H548.08V287.7l-12.67,16.66h-3.18L520.58,287.7v32.51H508.93Z" transform="translate(-91.82 -188.24)"/><path class="cls-2" d="M570.29,269.41h18.56c11.58,0,19,5.29,19,18.5,0,14.29-9,19.57-20.11,19.57h-5.83v12.73H570.29Zm16.39,28c6.37,0,9-2.1,9-9.55,0-6.85-2.64-8.47-9-8.47h-4.74v18Z" transform="translate(-91.82 -188.24)"/><path class="cls-2" d="M610.73,319.67c2.16-9,3.72-14,5.82-21.13,3.18-10.84,8.47-25.13,10.57-29.13h14.29c2.17,4,7.45,18.29,10.63,29.13,2.1,7.11,3.66,12.12,5.83,21.13v.54H645.13c-.67-3.11-1.55-7-2.57-11.1H625c-1,4.13-2,8-2.64,11.1H610.73Zm17-20.66h12.32c-2.23-8.87-4.6-17.13-6-20.32C632.67,281.88,630.17,290.14,627.73,299Z" transform="translate(-91.82 -188.24)"/><path class="cls-2" d="M662.06,297.46v-5.29c0-14.83,10.57-23.3,25.4-23.3,5,0,10.84.81,14.3,2.1v14.84H691.19v-6.37a34.48,34.48,0,0,0-4.81-.48c-7.92,0-12.12,4.75-12.12,12.67v5.83c0,7.65,4.47,13.2,12.12,13.2h3.18a41.88,41.88,0,0,0,11.65-2.1h.55v9.83a40.7,40.7,0,0,1-12.2,2.37h-3.18C671.34,320.76,662.06,312.56,662.06,297.46Z" transform="translate(-91.82 -188.24)"/><path class="cls-2" d="M719.77,279.44H706v-10h39.15v10H731.42v40.77H719.77Z" transform="translate(-91.82 -188.24)"/></svg>